<mxfile host="app.diagrams.net" modified="2023-10-23T14:05:39.864Z" agent="Mozilla/5.0 (Windows NT 10.0; Win64; x64) AppleWebKit/537.36 (KHTML, like Gecko) Chrome/118.0.0.0 Safari/537.36" etag="SsJnDzO_4DW7nEB5jmQS" version="22.0.6" type="github">
  <diagram name="Página-1" id="hW328NvXYTAlq7E8TpAr">
    <mxGraphModel dx="1257" dy="637" grid="0" gridSize="10" guides="1" tooltips="1" connect="1" arrows="1" fold="1" page="1" pageScale="1" pageWidth="827" pageHeight="1169" math="0" shadow="0">
      <root>
        <mxCell id="0" />
        <mxCell id="1" parent="0" />
        <mxCell id="U0iDXq0InhcBkjjMCatr-1" value="Voo" style="rounded=0;whiteSpace=wrap;html=1;" vertex="1" parent="1">
          <mxGeometry x="40" y="200" width="120" height="60" as="geometry" />
        </mxCell>
        <mxCell id="U0iDXq0InhcBkjjMCatr-22" value="" style="edgeStyle=orthogonalEdgeStyle;rounded=0;orthogonalLoop=1;jettySize=auto;html=1;endArrow=none;endFill=0;" edge="1" parent="1" source="U0iDXq0InhcBkjjMCatr-2" target="U0iDXq0InhcBkjjMCatr-21">
          <mxGeometry relative="1" as="geometry" />
        </mxCell>
        <mxCell id="U0iDXq0InhcBkjjMCatr-2" value="Possui" style="rhombus;whiteSpace=wrap;html=1;rounded=0;" vertex="1" parent="1">
          <mxGeometry x="260" y="190" width="140" height="80" as="geometry" />
        </mxCell>
        <mxCell id="U0iDXq0InhcBkjjMCatr-4" value="" style="endArrow=none;html=1;rounded=0;entryX=0;entryY=0.5;entryDx=0;entryDy=0;" edge="1" parent="1" target="U0iDXq0InhcBkjjMCatr-2">
          <mxGeometry width="50" height="50" relative="1" as="geometry">
            <mxPoint x="160" y="230" as="sourcePoint" />
            <mxPoint x="210" y="180" as="targetPoint" />
            <Array as="points" />
          </mxGeometry>
        </mxCell>
        <mxCell id="U0iDXq0InhcBkjjMCatr-5" value="" style="endArrow=oval;html=1;rounded=0;endFill=1;" edge="1" parent="1">
          <mxGeometry width="50" height="50" relative="1" as="geometry">
            <mxPoint x="80" y="34.96" as="sourcePoint" />
            <mxPoint x="120" y="34.96" as="targetPoint" />
            <Array as="points">
              <mxPoint x="100" y="34.96" />
            </Array>
          </mxGeometry>
        </mxCell>
        <mxCell id="U0iDXq0InhcBkjjMCatr-6" value="" style="endArrow=none;html=1;rounded=0;exitX=0.333;exitY=0;exitDx=0;exitDy=0;exitPerimeter=0;" edge="1" parent="1" source="U0iDXq0InhcBkjjMCatr-1">
          <mxGeometry width="50" height="50" relative="1" as="geometry">
            <mxPoint x="80" y="190" as="sourcePoint" />
            <mxPoint x="80" y="34" as="targetPoint" />
          </mxGeometry>
        </mxCell>
        <mxCell id="U0iDXq0InhcBkjjMCatr-7" value="" style="endArrow=oval;html=1;rounded=0;endFill=0;" edge="1" parent="1">
          <mxGeometry width="50" height="50" relative="1" as="geometry">
            <mxPoint x="80" y="65" as="sourcePoint" />
            <mxPoint x="120" y="65" as="targetPoint" />
          </mxGeometry>
        </mxCell>
        <mxCell id="U0iDXq0InhcBkjjMCatr-10" value="&amp;nbsp; id_voo (PK)&lt;span style=&quot;border-color: var(--border-color); color: rgb(70, 73, 93); text-align: left;&quot;&gt;&lt;span style=&quot;white-space: pre;&quot;&gt;&amp;nbsp;&amp;nbsp;&amp;nbsp;&lt;/span&gt;&lt;/span&gt;&lt;span style=&quot;border-color: var(--border-color); color: rgb(70, 73, 93); text-align: left;&quot;&gt;&lt;span style=&quot;white-space: pre;&quot;&gt;&amp;nbsp;&amp;nbsp;&amp;nbsp;&amp;nbsp;&lt;/span&gt;&lt;/span&gt;" style="text;html=1;align=center;verticalAlign=middle;resizable=0;points=[];autosize=1;strokeColor=none;fillColor=none;" vertex="1" parent="1">
          <mxGeometry x="115" y="22" width="111" height="26" as="geometry" />
        </mxCell>
        <mxCell id="U0iDXq0InhcBkjjMCatr-11" value="numero_avião&amp;nbsp;" style="text;html=1;align=center;verticalAlign=middle;resizable=0;points=[];autosize=1;strokeColor=none;fillColor=none;" vertex="1" parent="1">
          <mxGeometry x="121.5" y="52" width="97" height="26" as="geometry" />
        </mxCell>
        <mxCell id="U0iDXq0InhcBkjjMCatr-12" value="" style="endArrow=oval;html=1;rounded=0;endFill=0;" edge="1" parent="1">
          <mxGeometry width="50" height="50" relative="1" as="geometry">
            <mxPoint x="80" y="94" as="sourcePoint" />
            <mxPoint x="120" y="94" as="targetPoint" />
          </mxGeometry>
        </mxCell>
        <mxCell id="U0iDXq0InhcBkjjMCatr-13" value="cidade_origem&amp;nbsp;" style="text;html=1;align=center;verticalAlign=middle;resizable=0;points=[];autosize=1;strokeColor=none;fillColor=none;" vertex="1" parent="1">
          <mxGeometry x="121.5" y="81" width="100" height="26" as="geometry" />
        </mxCell>
        <mxCell id="U0iDXq0InhcBkjjMCatr-14" value="cidade_destino" style="text;html=1;align=center;verticalAlign=middle;resizable=0;points=[];autosize=1;strokeColor=none;fillColor=none;" vertex="1" parent="1">
          <mxGeometry x="122.5" y="110" width="99" height="26" as="geometry" />
        </mxCell>
        <mxCell id="U0iDXq0InhcBkjjMCatr-16" value="" style="endArrow=oval;html=1;rounded=0;endFill=0;" edge="1" parent="1">
          <mxGeometry width="50" height="50" relative="1" as="geometry">
            <mxPoint x="80" y="122.86999999999999" as="sourcePoint" />
            <mxPoint x="120" y="122.86999999999999" as="targetPoint" />
          </mxGeometry>
        </mxCell>
        <mxCell id="U0iDXq0InhcBkjjMCatr-17" value="" style="endArrow=oval;html=1;rounded=0;endFill=0;" edge="1" parent="1">
          <mxGeometry width="50" height="50" relative="1" as="geometry">
            <mxPoint x="80" y="149" as="sourcePoint" />
            <mxPoint x="120" y="149" as="targetPoint" />
          </mxGeometry>
        </mxCell>
        <mxCell id="U0iDXq0InhcBkjjMCatr-18" value="data_voo" style="text;html=1;align=center;verticalAlign=middle;resizable=0;points=[];autosize=1;strokeColor=none;fillColor=none;" vertex="1" parent="1">
          <mxGeometry x="122.5" y="136" width="67" height="26" as="geometry" />
        </mxCell>
        <mxCell id="U0iDXq0InhcBkjjMCatr-19" value="" style="endArrow=oval;html=1;rounded=0;endFill=0;" edge="1" parent="1">
          <mxGeometry width="50" height="50" relative="1" as="geometry">
            <mxPoint x="80" y="174" as="sourcePoint" />
            <mxPoint x="120" y="174" as="targetPoint" />
          </mxGeometry>
        </mxCell>
        <mxCell id="U0iDXq0InhcBkjjMCatr-20" value="hora_voo" style="text;html=1;align=center;verticalAlign=middle;resizable=0;points=[];autosize=1;strokeColor=none;fillColor=none;" vertex="1" parent="1">
          <mxGeometry x="122.5" y="160" width="68" height="26" as="geometry" />
        </mxCell>
        <mxCell id="U0iDXq0InhcBkjjMCatr-29" value="" style="edgeStyle=orthogonalEdgeStyle;rounded=0;orthogonalLoop=1;jettySize=auto;html=1;endArrow=none;endFill=0;" edge="1" parent="1" source="U0iDXq0InhcBkjjMCatr-21" target="U0iDXq0InhcBkjjMCatr-28">
          <mxGeometry relative="1" as="geometry" />
        </mxCell>
        <mxCell id="U0iDXq0InhcBkjjMCatr-21" value="Assento" style="whiteSpace=wrap;html=1;rounded=0;" vertex="1" parent="1">
          <mxGeometry x="490" y="200" width="120" height="60" as="geometry" />
        </mxCell>
        <mxCell id="U0iDXq0InhcBkjjMCatr-23" value="" style="endArrow=none;html=1;rounded=0;" edge="1" parent="1">
          <mxGeometry width="50" height="50" relative="1" as="geometry">
            <mxPoint x="547" y="200" as="sourcePoint" />
            <mxPoint x="547" y="81" as="targetPoint" />
          </mxGeometry>
        </mxCell>
        <mxCell id="U0iDXq0InhcBkjjMCatr-24" value="" style="endArrow=oval;html=1;rounded=0;endFill=1;" edge="1" parent="1">
          <mxGeometry width="50" height="50" relative="1" as="geometry">
            <mxPoint x="546.5" y="81" as="sourcePoint" />
            <mxPoint x="586.5" y="81" as="targetPoint" />
            <Array as="points">
              <mxPoint x="566.5" y="81" />
            </Array>
          </mxGeometry>
        </mxCell>
        <mxCell id="U0iDXq0InhcBkjjMCatr-25" value="id_assento (PK)" style="text;html=1;align=center;verticalAlign=middle;resizable=0;points=[];autosize=1;strokeColor=none;fillColor=none;" vertex="1" parent="1">
          <mxGeometry x="591" y="67" width="103" height="26" as="geometry" />
        </mxCell>
        <mxCell id="U0iDXq0InhcBkjjMCatr-26" value="" style="endArrow=oval;html=1;rounded=0;endFill=0;" edge="1" parent="1">
          <mxGeometry width="50" height="50" relative="1" as="geometry">
            <mxPoint x="546.5" y="107" as="sourcePoint" />
            <mxPoint x="586.5" y="107" as="targetPoint" />
          </mxGeometry>
        </mxCell>
        <mxCell id="U0iDXq0InhcBkjjMCatr-27" value="quantidade" style="text;html=1;align=center;verticalAlign=middle;resizable=0;points=[];autosize=1;strokeColor=none;fillColor=none;" vertex="1" parent="1">
          <mxGeometry x="591" y="93" width="77" height="26" as="geometry" />
        </mxCell>
        <mxCell id="U0iDXq0InhcBkjjMCatr-31" value="" style="edgeStyle=orthogonalEdgeStyle;rounded=0;orthogonalLoop=1;jettySize=auto;html=1;endArrow=none;endFill=0;" edge="1" parent="1" source="U0iDXq0InhcBkjjMCatr-28" target="U0iDXq0InhcBkjjMCatr-30">
          <mxGeometry relative="1" as="geometry" />
        </mxCell>
        <mxCell id="U0iDXq0InhcBkjjMCatr-28" value="Reserva" style="rhombus;whiteSpace=wrap;html=1;rounded=0;" vertex="1" parent="1">
          <mxGeometry x="477" y="330" width="147" height="80" as="geometry" />
        </mxCell>
        <mxCell id="U0iDXq0InhcBkjjMCatr-35" value="" style="edgeStyle=orthogonalEdgeStyle;rounded=0;orthogonalLoop=1;jettySize=auto;html=1;endArrow=none;endFill=0;" edge="1" parent="1" source="U0iDXq0InhcBkjjMCatr-30" target="U0iDXq0InhcBkjjMCatr-34">
          <mxGeometry relative="1" as="geometry" />
        </mxCell>
        <mxCell id="U0iDXq0InhcBkjjMCatr-30" value="Passageiro" style="whiteSpace=wrap;html=1;rounded=0;" vertex="1" parent="1">
          <mxGeometry x="490.5" y="500" width="120" height="60" as="geometry" />
        </mxCell>
        <mxCell id="U0iDXq0InhcBkjjMCatr-37" value="" style="edgeStyle=orthogonalEdgeStyle;rounded=0;orthogonalLoop=1;jettySize=auto;html=1;endArrow=none;endFill=0;" edge="1" parent="1" source="U0iDXq0InhcBkjjMCatr-34" target="U0iDXq0InhcBkjjMCatr-36">
          <mxGeometry relative="1" as="geometry" />
        </mxCell>
        <mxCell id="U0iDXq0InhcBkjjMCatr-34" value="Possui" style="rhombus;whiteSpace=wrap;html=1;rounded=0;" vertex="1" parent="1">
          <mxGeometry x="261" y="490" width="139" height="80" as="geometry" />
        </mxCell>
        <mxCell id="U0iDXq0InhcBkjjMCatr-36" value="Dependente" style="rounded=0;whiteSpace=wrap;html=1;" vertex="1" parent="1">
          <mxGeometry x="51.5" y="500" width="120" height="60" as="geometry" />
        </mxCell>
        <mxCell id="U0iDXq0InhcBkjjMCatr-38" value="" style="endArrow=none;html=1;rounded=0;" edge="1" parent="1">
          <mxGeometry width="50" height="50" relative="1" as="geometry">
            <mxPoint x="649" y="532" as="sourcePoint" />
            <mxPoint x="649" y="408" as="targetPoint" />
          </mxGeometry>
        </mxCell>
        <mxCell id="U0iDXq0InhcBkjjMCatr-39" value="" style="edgeStyle=orthogonalEdgeStyle;rounded=0;orthogonalLoop=1;jettySize=auto;html=1;endArrow=none;endFill=0;" edge="1" parent="1">
          <mxGeometry relative="1" as="geometry">
            <mxPoint x="649" y="532" as="sourcePoint" />
            <mxPoint x="610.5" y="532" as="targetPoint" />
          </mxGeometry>
        </mxCell>
        <mxCell id="U0iDXq0InhcBkjjMCatr-40" value="" style="endArrow=oval;html=1;rounded=0;endFill=1;" edge="1" parent="1">
          <mxGeometry width="50" height="50" relative="1" as="geometry">
            <mxPoint x="649" y="408" as="sourcePoint" />
            <mxPoint x="689" y="408" as="targetPoint" />
            <Array as="points">
              <mxPoint x="669" y="408" />
            </Array>
          </mxGeometry>
        </mxCell>
        <mxCell id="U0iDXq0InhcBkjjMCatr-41" value="id_CPF (PK)" style="text;html=1;align=center;verticalAlign=middle;resizable=0;points=[];autosize=1;strokeColor=none;fillColor=none;" vertex="1" parent="1">
          <mxGeometry x="696" y="396" width="85" height="26" as="geometry" />
        </mxCell>
        <mxCell id="U0iDXq0InhcBkjjMCatr-42" value="" style="endArrow=oval;html=1;rounded=0;endFill=0;" edge="1" parent="1">
          <mxGeometry width="50" height="50" relative="1" as="geometry">
            <mxPoint x="649" y="438" as="sourcePoint" />
            <mxPoint x="689" y="438" as="targetPoint" />
          </mxGeometry>
        </mxCell>
        <mxCell id="U0iDXq0InhcBkjjMCatr-43" value="nome" style="text;html=1;align=center;verticalAlign=middle;resizable=0;points=[];autosize=1;strokeColor=none;fillColor=none;" vertex="1" parent="1">
          <mxGeometry x="696" y="424" width="48" height="26" as="geometry" />
        </mxCell>
        <mxCell id="U0iDXq0InhcBkjjMCatr-44" value="" style="endArrow=oval;html=1;rounded=0;endFill=0;" edge="1" parent="1">
          <mxGeometry width="50" height="50" relative="1" as="geometry">
            <mxPoint x="649" y="464" as="sourcePoint" />
            <mxPoint x="689" y="464" as="targetPoint" />
          </mxGeometry>
        </mxCell>
        <mxCell id="U0iDXq0InhcBkjjMCatr-45" value="telefone" style="text;html=1;align=center;verticalAlign=middle;resizable=0;points=[];autosize=1;strokeColor=none;fillColor=none;" vertex="1" parent="1">
          <mxGeometry x="696" y="450" width="61" height="26" as="geometry" />
        </mxCell>
        <mxCell id="U0iDXq0InhcBkjjMCatr-46" value="" style="endArrow=oval;html=1;rounded=0;endFill=0;" edge="1" parent="1">
          <mxGeometry width="50" height="50" relative="1" as="geometry">
            <mxPoint x="649" y="487" as="sourcePoint" />
            <mxPoint x="689" y="487" as="targetPoint" />
          </mxGeometry>
        </mxCell>
        <mxCell id="U0iDXq0InhcBkjjMCatr-47" value="email" style="text;html=1;align=center;verticalAlign=middle;resizable=0;points=[];autosize=1;strokeColor=none;fillColor=none;" vertex="1" parent="1">
          <mxGeometry x="696" y="474" width="47" height="26" as="geometry" />
        </mxCell>
        <mxCell id="U0iDXq0InhcBkjjMCatr-48" value="" style="endArrow=oval;html=1;rounded=0;endFill=0;" edge="1" parent="1">
          <mxGeometry width="50" height="50" relative="1" as="geometry">
            <mxPoint x="649" y="512" as="sourcePoint" />
            <mxPoint x="689" y="512" as="targetPoint" />
          </mxGeometry>
        </mxCell>
        <mxCell id="U0iDXq0InhcBkjjMCatr-49" value="endereço" style="text;html=1;align=center;verticalAlign=middle;resizable=0;points=[];autosize=1;strokeColor=none;fillColor=none;" vertex="1" parent="1">
          <mxGeometry x="696" y="497" width="68" height="26" as="geometry" />
        </mxCell>
        <mxCell id="U0iDXq0InhcBkjjMCatr-50" value="" style="endArrow=none;html=1;rounded=0;exitX=0.333;exitY=0;exitDx=0;exitDy=0;exitPerimeter=0;" edge="1" parent="1">
          <mxGeometry width="50" height="50" relative="1" as="geometry">
            <mxPoint x="86" y="500" as="sourcePoint" />
            <mxPoint x="86" y="400" as="targetPoint" />
          </mxGeometry>
        </mxCell>
        <mxCell id="U0iDXq0InhcBkjjMCatr-51" value="nome" style="text;html=1;align=center;verticalAlign=middle;resizable=0;points=[];autosize=1;strokeColor=none;fillColor=none;" vertex="1" parent="1">
          <mxGeometry x="121.5" y="387" width="48" height="26" as="geometry" />
        </mxCell>
        <mxCell id="U0iDXq0InhcBkjjMCatr-52" value="data_nascimento" style="text;html=1;align=center;verticalAlign=middle;resizable=0;points=[];autosize=1;strokeColor=none;fillColor=none;" vertex="1" parent="1">
          <mxGeometry x="121.5" y="416" width="109" height="26" as="geometry" />
        </mxCell>
        <mxCell id="U0iDXq0InhcBkjjMCatr-53" value="id_CPF (FK)" style="text;html=1;align=center;verticalAlign=middle;resizable=0;points=[];autosize=1;strokeColor=none;fillColor=none;" vertex="1" parent="1">
          <mxGeometry x="121.5" y="450" width="85" height="26" as="geometry" />
        </mxCell>
        <mxCell id="U0iDXq0InhcBkjjMCatr-54" value="" style="endArrow=oval;html=1;rounded=0;endFill=0;" edge="1" parent="1">
          <mxGeometry width="50" height="50" relative="1" as="geometry">
            <mxPoint x="86" y="399.72" as="sourcePoint" />
            <mxPoint x="118" y="400" as="targetPoint" />
          </mxGeometry>
        </mxCell>
        <mxCell id="U0iDXq0InhcBkjjMCatr-55" value="" style="endArrow=oval;html=1;rounded=0;endFill=0;" edge="1" parent="1">
          <mxGeometry width="50" height="50" relative="1" as="geometry">
            <mxPoint x="86" y="428.8" as="sourcePoint" />
            <mxPoint x="118" y="429.08" as="targetPoint" />
          </mxGeometry>
        </mxCell>
        <mxCell id="U0iDXq0InhcBkjjMCatr-56" value="" style="endArrow=oval;html=1;rounded=0;endFill=0;" edge="1" parent="1">
          <mxGeometry width="50" height="50" relative="1" as="geometry">
            <mxPoint x="86" y="462.8" as="sourcePoint" />
            <mxPoint x="118" y="463.08" as="targetPoint" />
          </mxGeometry>
        </mxCell>
        <mxCell id="U0iDXq0InhcBkjjMCatr-57" value="" style="edgeStyle=orthogonalEdgeStyle;rounded=0;orthogonalLoop=1;jettySize=auto;html=1;endArrow=none;endFill=0;" edge="1" parent="1">
          <mxGeometry relative="1" as="geometry">
            <mxPoint x="438" y="370" as="sourcePoint" />
            <mxPoint x="477" y="369.55" as="targetPoint" />
          </mxGeometry>
        </mxCell>
        <mxCell id="U0iDXq0InhcBkjjMCatr-58" value="" style="edgeStyle=orthogonalEdgeStyle;rounded=0;orthogonalLoop=1;jettySize=auto;html=1;endArrow=none;endFill=0;" edge="1" parent="1">
          <mxGeometry relative="1" as="geometry">
            <mxPoint x="438" y="351.5" as="sourcePoint" />
            <mxPoint x="438" y="389" as="targetPoint" />
            <Array as="points">
              <mxPoint x="438" y="351.5" />
            </Array>
          </mxGeometry>
        </mxCell>
        <mxCell id="U0iDXq0InhcBkjjMCatr-60" value="" style="endArrow=oval;html=1;rounded=0;endFill=0;" edge="1" parent="1">
          <mxGeometry width="50" height="50" relative="1" as="geometry">
            <mxPoint x="438" y="352" as="sourcePoint" />
            <mxPoint x="411" y="352" as="targetPoint" />
          </mxGeometry>
        </mxCell>
        <mxCell id="U0iDXq0InhcBkjjMCatr-61" value="" style="endArrow=oval;html=1;rounded=0;endFill=0;" edge="1" parent="1">
          <mxGeometry width="50" height="50" relative="1" as="geometry">
            <mxPoint x="438" y="389" as="sourcePoint" />
            <mxPoint x="411" y="389" as="targetPoint" />
          </mxGeometry>
        </mxCell>
        <mxCell id="U0iDXq0InhcBkjjMCatr-62" value="(1,1)" style="text;html=1;align=center;verticalAlign=middle;resizable=0;points=[];autosize=1;strokeColor=none;fillColor=none;" vertex="1" parent="1">
          <mxGeometry x="161" y="200" width="43" height="26" as="geometry" />
        </mxCell>
        <mxCell id="U0iDXq0InhcBkjjMCatr-63" value="data_reserva" style="text;html=1;align=center;verticalAlign=middle;resizable=0;points=[];autosize=1;strokeColor=none;fillColor=none;" vertex="1" parent="1">
          <mxGeometry x="315" y="338" width="88" height="26" as="geometry" />
        </mxCell>
        <mxCell id="U0iDXq0InhcBkjjMCatr-64" value="hora_reserva" style="text;html=1;align=center;verticalAlign=middle;resizable=0;points=[];autosize=1;strokeColor=none;fillColor=none;" vertex="1" parent="1">
          <mxGeometry x="314" y="376" width="89" height="26" as="geometry" />
        </mxCell>
        <mxCell id="U0iDXq0InhcBkjjMCatr-65" value="(1,n)" style="text;html=1;align=center;verticalAlign=middle;resizable=0;points=[];autosize=1;strokeColor=none;fillColor=none;" vertex="1" parent="1">
          <mxGeometry x="447" y="203" width="43" height="26" as="geometry" />
        </mxCell>
        <mxCell id="U0iDXq0InhcBkjjMCatr-66" value="(1,1)" style="text;html=1;align=center;verticalAlign=middle;resizable=0;points=[];autosize=1;strokeColor=none;fillColor=none;" vertex="1" parent="1">
          <mxGeometry x="548" y="474" width="43" height="26" as="geometry" />
        </mxCell>
        <mxCell id="U0iDXq0InhcBkjjMCatr-67" value="(1,n)" style="text;html=1;align=center;verticalAlign=middle;resizable=0;points=[];autosize=1;strokeColor=none;fillColor=none;" vertex="1" parent="1">
          <mxGeometry x="545" y="260" width="43" height="26" as="geometry" />
        </mxCell>
        <mxCell id="U0iDXq0InhcBkjjMCatr-68" value="(1,1)" style="text;html=1;align=center;verticalAlign=middle;resizable=0;points=[];autosize=1;strokeColor=none;fillColor=none;" vertex="1" parent="1">
          <mxGeometry x="447" y="507" width="43" height="26" as="geometry" />
        </mxCell>
        <mxCell id="U0iDXq0InhcBkjjMCatr-70" value="(1,n)" style="text;html=1;align=center;verticalAlign=middle;resizable=0;points=[];autosize=1;strokeColor=none;fillColor=none;" vertex="1" parent="1">
          <mxGeometry x="167" y="507" width="43" height="26" as="geometry" />
        </mxCell>
        <mxCell id="U0iDXq0InhcBkjjMCatr-71" value="" style="endArrow=oval;html=1;rounded=0;endFill=0;" edge="1" parent="1">
          <mxGeometry width="50" height="50" relative="1" as="geometry">
            <mxPoint x="546.5" y="136" as="sourcePoint" />
            <mxPoint x="586.5" y="136" as="targetPoint" />
          </mxGeometry>
        </mxCell>
        <mxCell id="U0iDXq0InhcBkjjMCatr-72" value="" style="endArrow=oval;html=1;rounded=0;endFill=0;" edge="1" parent="1">
          <mxGeometry width="50" height="50" relative="1" as="geometry">
            <mxPoint x="546.5" y="165" as="sourcePoint" />
            <mxPoint x="586.5" y="165" as="targetPoint" />
          </mxGeometry>
        </mxCell>
        <mxCell id="U0iDXq0InhcBkjjMCatr-73" value="&amp;nbsp;id_voo (FK)" style="text;html=1;align=center;verticalAlign=middle;resizable=0;points=[];autosize=1;strokeColor=none;fillColor=none;" vertex="1" parent="1">
          <mxGeometry x="590" y="122" width="83" height="26" as="geometry" />
        </mxCell>
        <mxCell id="U0iDXq0InhcBkjjMCatr-74" value="id_CPF (FK)" style="text;html=1;align=center;verticalAlign=middle;resizable=0;points=[];autosize=1;strokeColor=none;fillColor=none;" vertex="1" parent="1">
          <mxGeometry x="591" y="152" width="85" height="26" as="geometry" />
        </mxCell>
      </root>
    </mxGraphModel>
  </diagram>
</mxfile>
